<?xml version="1.0" encoding="UTF-8"?>
<svg version="1.1" xmlns="http://www.w3.org/2000/svg" width="48" height="48">
<path d="M0 0 C3.25040606 2.03150379 4.64351171 3.51548089 5.546875 7.27734375 C5.86124466 11.20091892 5.6623221 13.93092574 3.5625 17.3203125 C0.72039132 20.64018945 -2.31568389 23.62534313 -6 26 C-9.75 26.1875 -9.75 26.1875 -13 26 C-12.855625 26.99 -12.71125 27.98 -12.5625 29 C-12.53435282 33.61613731 -15.05159443 35.96965217 -18.078125 39.203125 C-21.49554196 42.39827093 -23.16984418 43.89458339 -27.9375 44.5 C-31.14827095 44.34396253 -32.13355182 43.91653011 -35 42.125 C-37.402761 38.37068594 -37.83533689 35.97424117 -37.625 31.5703125 C-36.18527665 25.64945021 -30.98277413 21.21155364 -26 18 C-22.25 17.8125 -22.25 17.8125 -19 18 C-19.144375 17.01 -19.28875 16.02 -19.4375 15 C-19.46564718 10.38386269 -16.94840557 8.03034783 -13.921875 4.796875 C-9.51518167 0.67679587 -6.21297103 -1.25489712 0 0 Z M-6 10 C-6.33 10.66 -6.66 11.32 -7 12 C-6.01 11.67 -5.02 11.34 -4 11 C-4.66 10.67 -5.32 10.34 -6 10 Z M-26 30 C-27.485 31.98 -27.485 31.98 -29 34 C-27.68 33.34 -26.36 32.68 -25 32 C-25.33 31.34 -25.66 30.68 -26 30 Z " fill="#070707" transform="translate(40,3)"/>
<path d="M0 0 C3.75312545 0.38653452 6.34527548 0.7014619 9.5390625 2.8046875 C11.44945532 5.87792812 11.41019777 7.53422132 10.9765625 11.1171875 C8.9296875 13.92578125 8.9296875 13.92578125 6.2265625 16.5546875 C5.34484375 17.44027344 4.463125 18.32585938 3.5546875 19.23828125 C0.9765625 21.1171875 0.9765625 21.1171875 -1.3515625 20.90234375 C-1.90328125 20.64324219 -2.455 20.38414063 -3.0234375 20.1171875 C-2.28996094 19.45332031 -1.55648438 18.78945313 -0.80078125 18.10546875 C0.13636719 17.22246094 1.07351562 16.33945312 2.0390625 15.4296875 C2.97878906 14.55957031 3.91851562 13.68945312 4.88671875 12.79296875 C7.30591732 10.30892155 7.30591732 10.30892155 6.78515625 7.28515625 C6.51832031 6.56972656 6.25148437 5.85429687 5.9765625 5.1171875 C2.30235384 5.42337155 1.19520737 5.87490534 -1.3359375 8.6796875 C-1.8928125 9.4840625 -2.4496875 10.2884375 -3.0234375 11.1171875 C-2.0334375 11.7771875 -1.0434375 12.4371875 -0.0234375 13.1171875 C-1.63354277 17.19094781 -4.56166021 19.88225819 -7.6484375 22.8671875 C-8.1640625 23.37378906 -8.6796875 23.88039063 -9.2109375 24.40234375 C-10.47727089 25.64522652 -11.7497519 26.88184026 -13.0234375 28.1171875 C-14.0134375 27.7871875 -15.0034375 27.4571875 -16.0234375 27.1171875 C-16.3534375 26.4571875 -16.6834375 25.7971875 -17.0234375 25.1171875 C-19.0034375 26.7671875 -20.9834375 28.4171875 -23.0234375 30.1171875 C-22.6934375 31.7671875 -22.3634375 33.4171875 -22.0234375 35.1171875 C-17.34152201 34.65980677 -15.39239576 32.92608356 -12.2109375 29.5546875 C-11.02564453 28.31525391 -11.02564453 28.31525391 -9.81640625 27.05078125 C-8.92888672 26.09365234 -8.92888672 26.09365234 -8.0234375 25.1171875 C-7.2734375 26.82421875 -7.2734375 26.82421875 -7.0234375 29.1171875 C-10.08417698 33.49492786 -14.407994 38.31808251 -19.8359375 39.4296875 C-23.0234375 39.1171875 -23.0234375 39.1171875 -25.3984375 37.7421875 C-27.76488867 33.91945869 -28.85340274 30.6122205 -28.0234375 26.1171875 C-25.37185011 22.39872612 -22.1342095 19.1725735 -18.0234375 17.1171875 C-15.6904509 17.07696359 -13.35637084 17.07398503 -11.0234375 17.1171875 C-11.1678125 16.1271875 -11.3121875 15.1371875 -11.4609375 14.1171875 C-11.50858999 9.43771295 -8.84076849 7.05344568 -5.75 3.81640625 C-5.18023438 3.25566406 -4.61046875 2.69492188 -4.0234375 2.1171875 C-2.0234375 0.1171875 -2.0234375 0.1171875 0 0 Z " fill="#121212" transform="translate(32.0234375,3.8828125)"/>
<path d="M0 0 C0.7425 0.2475 1.485 0.495 2.25 0.75 C3.0390625 2.93359375 3.0390625 2.93359375 3.25 5.75 C1.3359375 8.28515625 1.3359375 8.28515625 -1.375 10.8125 C-2.25414063 11.64910156 -3.13328125 12.48570313 -4.0390625 13.34765625 C-5.77191045 14.88324917 -7.54447941 16.37584552 -9.36328125 17.80859375 C-11.62948208 19.65196824 -13.43545862 21.52019679 -15.3125 23.75 C-15.90933594 24.43964844 -16.50617187 25.12929688 -17.12109375 25.83984375 C-18.3840526 27.32086744 -19.63253925 28.8142385 -20.875 30.3125 C-22.75 31.75 -22.75 31.75 -25.5 31.5 C-26.2425 31.2525 -26.985 31.005 -27.75 30.75 C-28.08 29.1 -28.41 27.45 -28.75 25.75 C-26.44 23.77 -24.13 21.79 -21.75 19.75 C-21.09 20.74 -20.43 21.73 -19.75 22.75 C-15.89406926 21.16438362 -13.41783709 18.68490046 -10.5 15.75 C-9.60796875 14.863125 -8.7159375 13.97625 -7.796875 13.0625 C-5.52906927 11.01510897 -5.52906927 11.01510897 -5.75 8.75 C-6.74 8.75 -7.73 8.75 -8.75 8.75 C-7.21419612 4.14258836 -5.47554607 -0.49777692 0 0 Z M-2.75 4.75 C-3.08 5.41 -3.41 6.07 -3.75 6.75 C-2.76 6.42 -1.77 6.09 -0.75 5.75 C-1.41 5.42 -2.07 5.09 -2.75 4.75 Z M-22.75 24.75 C-24.235 26.73 -24.235 26.73 -25.75 28.75 C-24.43 28.09 -23.11 27.43 -21.75 26.75 C-22.08 26.09 -22.41 25.43 -22.75 24.75 Z " fill="#0D0D0D" transform="translate(36.75,8.25)"/>
<path d="M0 0 C2.375 1.625 2.375 1.625 4 4 C4.5648499 7.98163799 4.35119744 9.51810885 1.953125 12.80859375 C1.06109375 13.67613281 0.1690625 14.54367188 -0.75 15.4375 C-1.63171875 16.32308594 -2.5134375 17.20867188 -3.421875 18.12109375 C-6 20 -6 20 -8.328125 19.78515625 C-8.87984375 19.52605469 -9.4315625 19.26695313 -10 19 C-8.89978516 18.00419922 -8.89978516 18.00419922 -7.77734375 16.98828125 C-6.84019531 16.10527344 -5.90304688 15.22226562 -4.9375 14.3125 C-3.52791016 13.00732422 -3.52791016 13.00732422 -2.08984375 11.67578125 C0.32935482 9.19173405 0.32935482 9.19173405 -0.19140625 6.16796875 C-0.45824219 5.45253906 -0.72507812 4.73710937 -1 4 C-5.68191549 4.45738073 -7.63104174 6.19110394 -10.8125 9.5625 C-11.60269531 10.38878906 -12.39289062 11.21507812 -13.20703125 12.06640625 C-14.09455078 13.02353516 -14.09455078 13.02353516 -15 14 C-15.78515625 12.328125 -15.78515625 12.328125 -16 10 C-14.12109375 7.421875 -14.12109375 7.421875 -11.4375 4.75 C-10.56996094 3.85796875 -9.70242187 2.9659375 -8.80859375 2.046875 C-5.51810885 -0.35119744 -3.98163799 -0.5648499 0 0 Z " fill="#EBEBEB" transform="translate(39,5)"/>
<path d="M0 0 C0.55171875 0.25910156 1.1034375 0.51820312 1.671875 0.78515625 C0.93839844 1.44902344 0.20492188 2.11289062 -0.55078125 2.796875 C-1.48792969 3.67988281 -2.42507813 4.56289063 -3.390625 5.47265625 C-4.80021484 6.77783203 -4.80021484 6.77783203 -6.23828125 8.109375 C-8.65747982 10.5934222 -8.65747982 10.5934222 -8.13671875 13.6171875 C-7.73646484 14.69033203 -7.73646484 14.69033203 -7.328125 15.78515625 C-2.64620951 15.32777552 -0.69708326 13.59405231 2.484375 10.22265625 C3.27457031 9.39636719 4.06476562 8.57007813 4.87890625 7.71875 C5.47058594 7.08066406 6.06226562 6.44257813 6.671875 5.78515625 C7.421875 7.4921875 7.421875 7.4921875 7.671875 9.78515625 C4.61113552 14.16289661 0.2873185 18.98605126 -5.140625 20.09765625 C-8.328125 19.78515625 -8.328125 19.78515625 -10.765625 18.22265625 C-12.78768261 15.06824639 -12.78677377 13.49067503 -12.328125 9.78515625 C-10.28125 6.9765625 -10.28125 6.9765625 -7.578125 4.34765625 C-6.69640625 3.46207031 -5.8146875 2.57648437 -4.90625 1.6640625 C-2.328125 -0.21484375 -2.328125 -0.21484375 0 0 Z " fill="#EDEDED" transform="translate(17.328125,23.21484375)"/>
<path d="M0 0 C0.99 0.33 1.98 0.66 3 1 C1.38989473 5.07376031 -1.53822271 7.76507069 -4.625 10.75 C-5.140625 11.25660156 -5.65625 11.76320313 -6.1875 12.28515625 C-7.45383339 13.52803902 -8.7263144 14.76465276 -10 16 C-10.99 15.67 -11.98 15.34 -13 15 C-11.38989473 10.92623969 -8.46177729 8.23492931 -5.375 5.25 C-4.859375 4.74339844 -4.34375 4.23679687 -3.8125 3.71484375 C-2.54616661 2.47196098 -1.2736856 1.23534724 0 0 Z " fill="#FAFAFA" transform="translate(29,16)"/>
<path d="M0 0 C0.55171875 0.25910156 1.1034375 0.51820312 1.671875 0.78515625 C0.05301085 2.45778342 -1.5733979 4.12311162 -3.203125 5.78515625 C-4.56050781 7.17734375 -4.56050781 7.17734375 -5.9453125 8.59765625 C-8.328125 10.78515625 -8.328125 10.78515625 -10.328125 10.78515625 C-10.658125 12.43515625 -10.988125 14.08515625 -11.328125 15.78515625 C-11.658125 15.78515625 -11.988125 15.78515625 -12.328125 15.78515625 C-12.76768445 11.84647226 -12.65569476 10.23462697 -10.28125 6.9765625 C-9.38921875 6.10902344 -8.4971875 5.24148437 -7.578125 4.34765625 C-6.69640625 3.46207031 -5.8146875 2.57648437 -4.90625 1.6640625 C-2.328125 -0.21484375 -2.328125 -0.21484375 0 0 Z " fill="#E3E3E3" transform="translate(17.328125,23.21484375)"/>
<path d="M0 0 C0 0.33 0 0.66 0 1 C-0.78375 1.0825 -1.5675 1.165 -2.375 1.25 C-3.24125 1.4975 -4.1075 1.745 -5 2 C-5.67597415 3.32863884 -6.34087681 4.66292153 -7 6 C-8.32774288 7.4610504 -9.70631676 8.87708074 -11.125 10.25 C-11.84945313 10.95640625 -12.57390625 11.6628125 -13.3203125 12.390625 C-13.87460937 12.92171875 -14.42890625 13.4528125 -15 14 C-15.78515625 12.328125 -15.78515625 12.328125 -16 10 C-14.12109375 7.421875 -14.12109375 7.421875 -11.4375 4.75 C-10.56996094 3.85796875 -9.70242187 2.9659375 -8.80859375 2.046875 C-5.55052928 -0.32756976 -3.93868399 -0.43955945 0 0 Z " fill="#E2E2E2" transform="translate(39,5)"/>
</svg>
