<?xml version="1.0" encoding="UTF-8"?>
<svg version="1.1" xmlns="http://www.w3.org/2000/svg" width="48" height="48">
<path d="M0 0 C0 3.63 0 7.26 0 11 C1.26457031 10.2059375 2.52914063 9.411875 3.83203125 8.59375 C5.49196987 7.56214973 7.15213809 6.53091884 8.8125 5.5 C9.64587891 4.97535156 10.47925781 4.45070313 11.33789062 3.91015625 C12.14033203 3.41386719 12.94277344 2.91757813 13.76953125 2.40625 C14.50792236 1.94541016 15.24631348 1.48457031 16.00708008 1.00976562 C18 0 18 0 21 0 C21 10.89 21 21.78 21 33 C16.89086422 32.17817284 15.27917654 31.81345485 12.01171875 29.71484375 C11.30595703 29.26689453 10.60019531 28.81894531 9.87304688 28.35742188 C9.15181641 27.88884766 8.43058594 27.42027344 7.6875 26.9375 C6.94693359 26.46505859 6.20636719 25.99261719 5.44335938 25.50585938 C3.62448781 24.34412851 1.8116341 23.17298518 0 22 C0 25.63 0 29.26 0 33 C-6.02579533 32.61619138 -9.91023616 29.79568824 -14.75 26.5 C-16.2652331 25.48899573 -17.78084022 24.47855173 -19.296875 23.46875 C-19.96041992 23.01951172 -20.62396484 22.57027344 -21.30761719 22.10742188 C-23.01034938 20.94668963 -23.01034938 20.94668963 -25 20 C-25.55078125 16.86328125 -25.55078125 16.86328125 -25 13 C-22.39673378 10.49599445 -19.35006102 8.89784002 -16.1875 7.1875 C-15.35412109 6.71119141 -14.52074219 6.23488281 -13.66210938 5.74414062 C-12.11256925 4.85922253 -10.5567272 3.98518657 -8.99291992 3.12573242 C-3.45933637 0 -3.45933637 0 0 0 Z " fill="#040404" transform="translate(25,9)"/>
<path d="M0 0 C0 7.92 0 15.84 0 24 C-10.71428571 18.24107143 -10.71428571 18.24107143 -15.6875 15.25 C-16.33074219 14.86328125 -16.97398438 14.4765625 -17.63671875 14.078125 C-18.08660156 13.72234375 -18.53648438 13.3665625 -19 13 C-19 12.34 -19 11.68 -19 11 C-17.36352539 9.76318359 -17.36352539 9.76318359 -15.09765625 8.3984375 C-14.29005859 7.90859375 -13.48246094 7.41875 -12.65039062 6.9140625 C-11.79638672 6.40617187 -10.94238281 5.89828125 -10.0625 5.375 C-9.21236328 4.859375 -8.36222656 4.34375 -7.48632812 3.8125 C-1.15737641 0 -1.15737641 0 0 0 Z " fill="#F9F9F9" transform="translate(44,12)"/>
<path d="M0 0 C0 7.26 0 14.52 0 22 C-5.07172424 20.30942525 -8.08813717 18.82817217 -12.375 15.875 C-13.43460938 15.15054687 -14.49421875 14.42609375 -15.5859375 13.6796875 C-16.78089844 12.84824219 -16.78089844 12.84824219 -18 12 C-16.89125042 8.67375126 -16.54334303 8.42640801 -13.69140625 6.73828125 C-13.02689453 6.34189453 -12.36238281 5.94550781 -11.67773438 5.53710938 C-10.63069336 4.93092773 -10.63069336 4.93092773 -9.5625 4.3125 C-8.86833984 3.89677734 -8.17417969 3.48105469 -7.45898438 3.05273438 C-2.28086515 0 -2.28086515 0 0 0 Z " fill="#FAFAFA" transform="translate(22,13)"/>
<path d="M0 0 C0 3.63 0 7.26 0 11 C0.78375 10.505 1.5675 10.01 2.375 9.5 C5 8 5 8 7 8 C7 8.99 7 9.98 7 11 C2.77777778 14 2.77777778 14 0 14 C-1.28446919 16.56893838 -1.32977144 18.76576337 -1.5625 21.625 C-1.64628906 22.62789062 -1.73007812 23.63078125 -1.81640625 24.6640625 C-1.90728516 25.82035156 -1.90728516 25.82035156 -2 27 C-2.66 26.67 -3.32 26.34 -4 26 C-3.67 18.74 -3.34 11.48 -3 4 C-7.19131458 6.62791939 -7.19131458 6.62791939 -11.37646484 9.265625 C-15.77777778 12 -15.77777778 12 -18 12 C-16.47173465 7.81142089 -13.76925447 6.15574256 -10.125 3.75 C-9.07570313 3.04359375 -8.02640625 2.3371875 -6.9453125 1.609375 C-4 0 -4 0 0 0 Z " fill="#1B1B1B" transform="translate(25,9)"/>
<path d="M0 0 C-3.40712181 3.97497544 -7.32760855 5.86793788 -12 8 C-10.65790559 4.88180054 -9.32585491 3.15453328 -6.5625 1.1875 C-5.66724609 0.52814453 -5.66724609 0.52814453 -4.75390625 -0.14453125 C-3 -1 -3 -1 0 0 Z " fill="#0C0C0C" transform="translate(44,11)"/>
</svg>
