<?xml version="1.0" encoding="UTF-8"?>
<svg version="1.1" xmlns="http://www.w3.org/2000/svg" width="48" height="48">
<path d="M0 0 C1.3389389 0.99248194 2.6723109 1.99251827 4 3 C6.34852226 3.56689282 6.34852226 3.56689282 8.75 3.6875 C9.54921875 3.75324219 10.3484375 3.81898437 11.171875 3.88671875 C11.77515625 3.92410156 12.3784375 3.96148437 13 4 C13 3.01 13 2.02 13 1 C14.98 1 16.96 1 19 1 C19 1.99 19 2.98 19 4 C20.65 4 22.3 4 24 4 C24 16.54 24 29.08 24 42 C12.12 42 0.24 42 -12 42 C-12.25 33.3125 -12.25 33.3125 -12.29785156 30.6027832 C-12.51866576 25.42120379 -13.33081345 22.8904799 -17 19 C-18.35362889 13.77886 -18.1160287 9.96806738 -16 5 C-11.48273573 -0.30778552 -6.8579271 -1.35800537 0 0 Z " fill="#464646" transform="translate(18,2)"/>
<path d="M0 0 C1.3389389 0.99248194 2.6723109 1.99251827 4 3 C6.34852226 3.56689282 6.34852226 3.56689282 8.75 3.6875 C9.54921875 3.75324219 10.3484375 3.81898437 11.171875 3.88671875 C11.77515625 3.92410156 12.3784375 3.96148437 13 4 C13 3.01 13 2.02 13 1 C14.98 1 16.96 1 19 1 C19 1.99 19 2.98 19 4 C20.65 4 22.3 4 24 4 C24 16.54 24 29.08 24 42 C12.12 42 0.24 42 -12 42 C-12.25 33.3125 -12.25 33.3125 -12.29785156 30.6027832 C-12.51866576 25.42120379 -13.33081345 22.8904799 -17 19 C-18.35362889 13.77886 -18.1160287 9.96806738 -16 5 C-11.48273573 -0.30778552 -6.8579271 -1.35800537 0 0 Z M-14 7 C-14.33 7.33 -14.66 7.66 -15 8 C-15.14408361 12.98117614 -14.67958878 16.18780853 -11.4375 20.0625 C-10.633125 20.701875 -9.82875 21.34125 -9 22 C-9.33 22.33 -9.66 22.66 -10 23 C-10 27.95 -10 32.9 -10 38 C0.56 38 11.12 38 22 38 C22 30.08 22 22.16 22 14 C19.56625 13.979375 17.1325 13.95875 14.625 13.9375 C13.86010254 13.928396 13.09520508 13.91929199 12.30712891 13.90991211 C8.52836595 13.83099182 8.52836595 13.83099182 5 15 C5.061875 14.113125 5.12375 13.22625 5.1875 12.3125 C4.97589729 8.57418547 4.28109386 6.93283496 2 4 C-4.03043224 -0.52282418 -9.60515141 1.70032964 -14 7 Z " fill="#080808" transform="translate(18,2)"/>
<path d="M0 0 C4.95 0 9.9 0 15 0 C15 7.92 15 15.84 15 24 C4.44 24 -6.12 24 -17 24 C-17 19.05 -17 14.1 -17 9 C-14.525 9.495 -14.525 9.495 -12 10 C-12 13.3 -12 16.6 -12 20 C-6.39 20 -0.78 20 5 20 C5 18.35 5 16.7 5 15 C6.65 15 8.3 15 10 15 C10 11.04 10 7.08 10 3 C6.37 3 2.74 3 -1 3 C-0.67 2.01 -0.34 1.02 0 0 Z " fill="#FEFEFE" transform="translate(25,16)"/>
<path d="M0 0 C3.9672797 0.26448531 5.67929288 0.7934343 8.75 3.25 C11.07826375 6.46522137 11.14711181 9.35830425 10.75 13.25 C9.38717556 16.4060145 8.43648902 17.8603711 5.4375 19.5625 C2.26245307 20.37472131 0.01194647 20.72570053 -3.25 20.25 C-6.21916217 18.20457717 -7.82388423 16.55188962 -8.95703125 13.08984375 C-9.39024755 10.66464222 -9.56891617 8.69502398 -9.25 6.25 C-6.875 3.25 -6.875 3.25 -4.25 1.25 C-3.25 0.25 -3.25 0.25 0 0 Z " fill="#F4F4F4" transform="translate(12.25,3.75)"/>
<path d="M0 0 C2.31 0 4.62 0 7 0 C7.33 0.66 7.66 1.32 8 2 C9.32 2 10.64 2 12 2 C12.33 1.34 12.66 0.68 13 0 C13.99 0 14.98 0 16 0 C16 1.98 16 3.96 16 6 C11.05 6 6.1 6 1 6 C0.67 4.02 0.34 2.04 0 0 Z " fill="#FEFEFE" transform="translate(24,8)"/>
<path d="M0 0 C0.66 0 1.32 0 2 0 C2.16276042 2.01822917 2.32552083 4.03645833 2.48828125 6.0546875 C2.87393036 8.39519216 2.87393036 8.39519216 6 10 C6 10.66 6 11.32 6 12 C1.125 10.125 1.125 10.125 0 9 C-0.07179964 7.48071962 -0.08392007 5.95832518 -0.0625 4.4375 C-0.05347656 3.61121094 -0.04445313 2.78492188 -0.03515625 1.93359375 C-0.02355469 1.29550781 -0.01195312 0.65742187 0 0 Z " fill="#131313" transform="translate(12,6)"/>
</svg>
