<?xml version="1.0" encoding="UTF-8"?>
<svg version="1.1" xmlns="http://www.w3.org/2000/svg" width="48" height="48">
<path d="M0 0 C4.10913578 0.82182716 5.72082346 1.18654515 8.98828125 3.28515625 C9.69404297 3.73310547 10.39980469 4.18105469 11.12695312 4.64257812 C11.84818359 5.11115234 12.56941406 5.57972656 13.3125 6.0625 C14.05306641 6.53494141 14.79363281 7.00738281 15.55664062 7.49414062 C17.37551219 8.65587149 19.1883659 9.82701482 21 11 C21 7.37 21 3.74 21 0 C27.24283001 0.37866346 31.71780246 3.45260124 36.875 6.6875 C37.75414062 7.20505859 38.63328125 7.72261719 39.5390625 8.25585938 C40.36921875 8.77341797 41.199375 9.29097656 42.0546875 9.82421875 C42.81249512 10.28916748 43.57030273 10.75411621 44.35107422 11.2331543 C46 13 46 13 46.52490234 15.98413086 C46 19 46 19 44.13574219 20.87451172 C43.28141602 21.38771973 42.42708984 21.90092773 41.546875 22.4296875 C40.15275391 23.28046875 40.15275391 23.28046875 38.73046875 24.1484375 C37.74691406 24.71820313 36.76335938 25.28796875 35.75 25.875 C34.78191406 26.46796875 33.81382813 27.0609375 32.81640625 27.671875 C25.58624352 32 25.58624352 32 21 32 C21 28.37 21 24.74 21 21 C19.73542969 21.7940625 18.47085937 22.588125 17.16796875 23.40625 C15.50803013 24.43785027 13.84786191 25.46908116 12.1875 26.5 C11.35412109 27.02464844 10.52074219 27.54929687 9.66210938 28.08984375 C8.45844727 28.83427734 8.45844727 28.83427734 7.23046875 29.59375 C6.49207764 30.05458984 5.75368652 30.51542969 4.99291992 30.99023438 C3 32 3 32 0 32 C0 21.44 0 10.88 0 0 Z " fill="#090909" transform="translate(2,9)"/>
<path d="M0 0 C10.71428571 5.75892857 10.71428571 5.75892857 15.6875 8.75 C16.33074219 9.13671875 16.97398438 9.5234375 17.63671875 9.921875 C18.08660156 10.27765625 18.53648438 10.6334375 19 11 C19 11.66 19 12.32 19 13 C17.36352539 14.23681641 17.36352539 14.23681641 15.09765625 15.6015625 C14.29005859 16.09140625 13.48246094 16.58125 12.65039062 17.0859375 C11.79638672 17.59382813 10.94238281 18.10171875 10.0625 18.625 C9.21236328 19.140625 8.36222656 19.65625 7.48632812 20.1875 C1.15737641 24 1.15737641 24 0 24 C0 16.08 0 8.16 0 0 Z " fill="#F8F8F8" transform="translate(4,12)"/>
<path d="M0 0 C2.2275 1.258125 4.455 2.51625 6.75 3.8125 C7.44448242 4.20284424 8.13896484 4.59318848 8.85449219 4.99536133 C12.06775078 6.821245 15.10591546 8.68327071 18 11 C16.86681364 14.39955907 16.36148773 14.69052763 13.4375 16.48046875 C12.72335938 16.92197266 12.00921875 17.36347656 11.2734375 17.81835938 C10.14808594 18.49608398 10.14808594 18.49608398 9 19.1875 C8.24976563 19.65091797 7.49953125 20.11433594 6.7265625 20.59179688 C1.16501749 24 1.16501749 24 0 24 C0 16.08 0 8.16 0 0 Z " fill="#F8F8F8" transform="translate(26,12)"/>
</svg>
