<?xml version="1.0" encoding="UTF-8"?>
<svg version="1.1" xmlns="http://www.w3.org/2000/svg" width="48" height="48">
<path d="M0 0 C10.23 0 20.46 0 31 0 C31.33 1.98 31.66 3.96 32 6 C32.680625 5.505 33.36125 5.01 34.0625 4.5 C37 3 37 3 44 3 C44 11.58 44 20.16 44 29 C36.125 29 36.125 29 32 26 C31.34 27.98 30.68 29.96 30 32 C25.8882744 32.02465746 21.77657722 32.04283959 17.66479492 32.05493164 C16.26504772 32.0599708 14.8653058 32.06680216 13.46557617 32.07543945 C11.45754223 32.0875232 9.44947043 32.09269807 7.44140625 32.09765625 C6.23170166 32.10289307 5.02199707 32.10812988 3.77563477 32.11352539 C1 32 1 32 0 31 C-0.08790975 28.70848583 -0.10694038 26.41427476 -0.09765625 24.12109375 C-0.09515869 22.86482178 -0.09266113 21.6085498 -0.09008789 20.31420898 C-0.08098389 18.70489502 -0.07187988 17.09558105 -0.0625 15.4375 C-0.041875 10.343125 -0.02125 5.24875 0 0 Z " fill="#FEFEFE" transform="translate(2,9)"/>
<path d="M0 0 C10.23 0 20.46 0 31 0 C31.33 1.98 31.66 3.96 32 6 C32.680625 5.505 33.36125 5.01 34.0625 4.5 C37 3 37 3 44 3 C44 11.58 44 20.16 44 29 C36.125 29 36.125 29 32 26 C31.34 27.98 30.68 29.96 30 32 C25.8882744 32.02465746 21.77657722 32.04283959 17.66479492 32.05493164 C16.26504772 32.0599708 14.8653058 32.06680216 13.46557617 32.07543945 C11.45754223 32.0875232 9.44947043 32.09269807 7.44140625 32.09765625 C6.23170166 32.10289307 5.02199707 32.10812988 3.77563477 32.11352539 C1 32 1 32 0 31 C-0.08790975 28.70848583 -0.10694038 26.41427476 -0.09765625 24.12109375 C-0.09515869 22.86482178 -0.09266113 21.6085498 -0.09008789 20.31420898 C-0.08098389 18.70489502 -0.07187988 17.09558105 -0.0625 15.4375 C-0.041875 10.343125 -0.02125 5.24875 0 0 Z M2 2 C1.979375 6.104375 1.95875 10.20875 1.9375 14.4375 C1.928396 15.73357178 1.91929199 17.02964355 1.90991211 18.36499023 C1.90741455 19.37762939 1.90491699 20.39026855 1.90234375 21.43359375 C1.89710693 22.47572021 1.89187012 23.51784668 1.88647461 24.59155273 C1.72694444 26.95128747 1.72694444 26.95128747 3 28 C4.84159023 28.09959621 6.68696967 28.13080411 8.53125 28.1328125 C10.21154297 28.13474609 10.21154297 28.13474609 11.92578125 28.13671875 C13.69501953 28.13091797 13.69501953 28.13091797 15.5 28.125 C16.67949219 28.12886719 17.85898437 28.13273437 19.07421875 28.13671875 C20.19441406 28.13542969 21.31460937 28.13414063 22.46875 28.1328125 C24.02239258 28.13112061 24.02239258 28.13112061 25.60742188 28.12939453 C27.95297823 28.26965153 27.95297823 28.26965153 29 27 C29.08737645 25.14630389 29.10698153 23.28932459 29.09765625 21.43359375 C29.09515869 20.42095459 29.09266113 19.40831543 29.09008789 18.36499023 C29.08098389 17.06891846 29.07187988 15.77284668 29.0625 14.4375 C29.0315625 8.2809375 29.0315625 8.2809375 29 2 C20.09 2 11.18 2 2 2 Z " fill="#020202" transform="translate(2,9)"/>
<path d="M0 0 C0 6.6 0 13.2 0 20 C-5.01033489 18.99793302 -7.34415231 18.48580826 -11 15 C-12.01230575 11.45393487 -12.06822545 8.53599762 -11 5 C-7.84005594 1.72382811 -4.55366702 0 0 0 Z " fill="#FCFCFC" transform="translate(44,14)"/>
</svg>
