<?xml version="1.0" encoding="UTF-8"?>
<svg version="1.1" xmlns="http://www.w3.org/2000/svg" width="48" height="48">
<path d="M0 0 C1.51815698 0.00025106 3.03631968 0.00581115 4.55444336 0.01586914 C5.26113159 0.01687622 5.96781982 0.0178833 6.69592285 0.0189209 C9.34539402 0.02416794 11.99484213 0.0381291 14.64428711 0.05102539 C20.56366211 0.07165039 26.48303711 0.09227539 32.58178711 0.11352539 C32.58178711 12.65352539 32.58178711 25.19352539 32.58178711 38.11352539 C20.70178711 38.11352539 8.82178711 38.11352539 -3.41821289 38.11352539 C-4.62409093 34.49589127 -4.56153674 31.18341989 -4.55102539 27.41821289 C-4.55198212 26.67016388 -4.55293884 25.92211487 -4.55392456 25.15139771 C-4.55460432 23.57285477 -4.55276426 21.99430903 -4.54858398 20.41577148 C-4.54321779 17.99074084 -4.54854353 15.56589414 -4.55493164 13.14086914 C-4.55427112 11.60831665 -4.55299049 10.07576427 -4.55102539 8.54321289 C-4.55304962 7.81407684 -4.55507385 7.0849408 -4.55715942 6.33370972 C-4.5281097 0.15038719 -4.5281097 0.15038719 0 0 Z " fill="#FEFEFE" transform="translate(9.418212890625,5.886474609375)"/>
<path d="M0 0 C1.51815698 0.00025106 3.03631968 0.00581115 4.55444336 0.01586914 C5.26113159 0.01687622 5.96781982 0.0178833 6.69592285 0.0189209 C9.34539402 0.02416794 11.99484213 0.0381291 14.64428711 0.05102539 C20.56366211 0.07165039 26.48303711 0.09227539 32.58178711 0.11352539 C32.58178711 12.65352539 32.58178711 25.19352539 32.58178711 38.11352539 C20.70178711 38.11352539 8.82178711 38.11352539 -3.41821289 38.11352539 C-4.62409093 34.49589127 -4.56153674 31.18341989 -4.55102539 27.41821289 C-4.55198212 26.67016388 -4.55293884 25.92211487 -4.55392456 25.15139771 C-4.55460432 23.57285477 -4.55276426 21.99430903 -4.54858398 20.41577148 C-4.54321779 17.99074084 -4.54854353 15.56589414 -4.55493164 13.14086914 C-4.55427112 11.60831665 -4.55299049 10.07576427 -4.55102539 8.54321289 C-4.55304962 7.81407684 -4.55507385 7.0849408 -4.55715942 6.33370972 C-4.5281097 0.15038719 -4.5281097 0.15038719 0 0 Z M-1.41821289 2.11352539 C-1.41821289 12.67352539 -1.41821289 23.23352539 -1.41821289 34.11352539 C9.14178711 34.11352539 19.70178711 34.11352539 30.58178711 34.11352539 C30.58178711 23.55352539 30.58178711 12.99352539 30.58178711 2.11352539 C20.02178711 2.11352539 9.46178711 2.11352539 -1.41821289 2.11352539 Z " fill="#000000" transform="translate(9.418212890625,5.886474609375)"/>
<path d="M0 0 C1.32 0 2.64 0 4 0 C4 1.98 4 3.96 4 6 C5.98 6 7.96 6 10 6 C10 7.32 10 8.64 10 10 C8.02 10 6.04 10 4 10 C4 11.98 4 13.96 4 16 C2.68 16 1.36 16 0 16 C0 14.02 0 12.04 0 10 C-1.98 10 -3.96 10 -6 10 C-6 8.68 -6 7.36 -6 6 C-4.02 6 -2.04 6 0 6 C0 4.02 0 2.04 0 0 Z " fill="#040404" transform="translate(22,16)"/>
</svg>
